<?xml version="1.0" standalone="no"?>
<!DOCTYPE svg PUBLIC "-//W3C//DTD SVG 20010904//EN"
 "http://www.w3.org/TR/2001/REC-SVG-20010904/DTD/svg10.dtd">
<svg version="1.0" xmlns="http://www.w3.org/2000/svg"
 width="500.000000pt" height="500.000000pt" viewBox="0 0 500.000000 500.000000"
 preserveAspectRatio="xMidYMid meet">
<metadata>
Created by potrace 1.16, written by Peter Selinger 2001-2019
</metadata>
<g transform="translate(0.000000,500.000000) scale(0.100000,-0.100000)"
fill="#000000" stroke="none">
<path d="M3725 4801 c-118 -31 -290 -113 -384 -185 -113 -85 -222 -214 -295
-347 -197 -360 -161 -847 88 -1167 141 -182 308 -297 537 -370 298 -96 657
-50 914 115 73 47 265 232 265 255 0 7 -22 29 -48 48 -26 19 -86 65 -133 103
-47 37 -90 67 -96 67 -5 0 -26 -20 -46 -45 -49 -58 -188 -149 -285 -187 -203
-78 -431 -55 -610 62 -80 52 -182 157 -222 226 -130 231 -129 530 3 766 59
105 182 216 312 281 97 49 176 67 288 67 133 0 217 -21 354 -87 l53 -25 2
-177 3 -176 183 -3 182 -2 0 265 0 265 -62 50 c-76 60 -209 127 -343 171
l-100 34 -265 2 c-146 1 -278 -2 -295 -6z"/>
<path d="M570 4600 l0 -180 177 -2 177 -3 148 -415 c82 -228 175 -492 208
-586 108 -313 209 -589 237 -652 l27 -62 169 2 169 3 30 80 c16 44 47 127 68
185 21 58 57 155 80 215 22 61 63 171 90 245 26 74 90 245 140 380 51 135 102
274 115 310 57 158 77 208 97 252 l21 48 166 2 166 3 3 178 2 177 -311 -2
-311 -3 -140 -410 c-77 -225 -190 -557 -251 -737 -61 -181 -113 -328 -117
-328 -3 0 -43 111 -89 248 -46 136 -93 270 -106 297 -12 28 -89 249 -171 493
l-149 442 -322 0 -323 0 0 -180z"/>
<path d="M1928 2275 c-100 -17 -137 -29 -230 -77 -94 -48 -214 -149 -273 -229
l-43 -59 -6 98 c-4 53 -9 136 -12 185 l-6 87 -322 -2 -321 -3 0 -160 0 -160
168 -3 167 -2 0 -675 0 -675 -165 0 c-162 0 -165 0 -170 -22 -3 -13 -4 -93 -3
-178 l3 -155 788 -3 787 -2 0 175 0 175 -435 0 -435 0 0 418 c0 460 4 502 66
624 73 145 259 292 395 312 24 4 56 9 72 12 l27 6 0 -156 0 -156 178 2 177 3
0 315 0 315 -165 2 c-97 1 -196 -4 -242 -12z"/>
<path d="M2710 2100 l0 -180 149 0 150 0 3 -547 4 -548 27 -98 c80 -291 248
-459 517 -522 88 -20 307 -20 384 0 139 36 292 151 379 282 23 36 43 58 44 51
1 -7 9 -60 18 -118 8 -58 18 -122 21 -142 l6 -38 289 0 289 0 0 180 0 180
-135 0 c-74 0 -136 1 -137 3 -1 1 -4 378 -7 837 l-6 835 -367 3 -368 2 0 -180
0 -180 176 0 175 0 -4 -457 c-4 -501 -3 -493 -68 -628 -45 -96 -156 -206 -259
-258 -100 -50 -181 -65 -262 -48 -175 36 -280 146 -319 334 -17 85 -19 142
-19 755 l0 662 -340 0 -340 0 0 -180z"/>
<path d="M10 425 l0 -185 180 0 180 0 0 185 0 185 -180 0 -180 0 0 -185z"/>
</g>
</svg>
